<?xml version="1.0" encoding="UTF-8" standalone="no"?>
<!-- Created with Inkscape (http://www.inkscape.org/) -->

<svg
   version="1.1"
   id="svg1"
   xml:space="preserve"
   width="1431.4551"
   height="785.88831"
   xmlns:inkscape="http://www.inkscape.org/namespaces/inkscape"
   xmlns:sodipodi="http://sodipodi.sourceforge.net/DTD/sodipodi-0.dtd"
   xmlns="http://www.w3.org/2000/svg"
   xmlns:svg="http://www.w3.org/2000/svg"><defs
     id="defs1" /><sodipodi:namedview
     id="namedview1"
     pagecolor="#ffffff"
     bordercolor="#000000"
     borderopacity="0.25"
     inkscape:showpageshadow="2"
     inkscape:pageopacity="0.0"
     inkscape:pagecheckerboard="0"
     inkscape:deskcolor="#d1d1d1" /><inkscape:clipboard
     style="font-variation-settings:normal;opacity:1;vector-effect:none;fill:#800080;fill-opacity:1;stroke-width:3.77952756;stroke-linecap:butt;stroke-linejoin:miter;stroke-miterlimit:4;stroke-dasharray:none;stroke-dashoffset:0;stroke-opacity:1;-inkscape-stroke:none;stop-color:#000000;stop-opacity:1"
     min="289.70564,194.78471"
     max="1721.1607,980.67303"
     geom-min="289.70564,194.78471"
     geom-max="1721.1607,980.67303" /><g
     id="g1"
     transform="matrix(3.7795276,0,0,3.7795276,-289.70564,-194.78471)"><path
       style="fill:#800080"
       d="m 78.933346,255.5359 c -1.247645,-2.16225 -2.274561,-3.94636 -2.282035,-3.9647 -0.01295,-0.0318 4.429225,-7.75843 4.536861,-7.89137 0.03855,-0.0476 0.346334,-0.0637 1.217806,-0.0637 h 1.166213 v -0.46712 c 0,-0.51852 0.794874,-30.49581 0.834562,-31.47402 l 0.025,-0.6162 -3.082191,-3.25456 -3.082191,-3.25455 0.03023,-0.7681 c 0.0395,-1.00356 0.584276,-21.49232 0.586379,-22.05351 l 0.0016,-0.43049 2.900436,-2.74423 2.900435,-2.74424 0.02714,-0.31434 c 0.01493,-0.1729 0.109042,-3.57174 0.209147,-7.55299 0.100105,-3.98125 0.198475,-7.44509 0.218601,-7.69742 0.02407,-0.30177 0.103128,2.05351 0.231001,6.8818 0.106925,4.03732 0.207152,7.71909 0.222725,8.1817 l 0.02832,0.84111 -2.682332,2.82813 -2.682333,2.82813 5e-5,0.48533 c 2.7e-5,0.26693 0.126023,5.15301 0.279992,10.85796 l 0.279943,10.37264 0.217027,0.21115 c 0.119365,0.11614 1.558978,1.47882 3.199141,3.02818 1.640163,1.54936 3.033375,2.86574 3.096026,2.9253 l 0.113912,0.1083 0.43394,16.33753 c 0.238667,8.98565 0.447738,16.59561 0.464601,16.91103 l 0.03066,0.57348 h 0.982193 0.982192 l 2.211543,3.83195 2.211543,3.83195 0.02549,-1.09197 0.02549,-1.09197 1.095991,0.0153 c 30.454246,0.42619 62.103216,0.87642 63.022676,0.89654 l 1.2139,0.0266 5.48949,-5.33197 c 3.01922,-2.93259 5.74182,-5.58051 6.05023,-5.88427 l 0.56074,-0.5523 21.18066,0.30432 c 11.64937,0.16737 21.33447,0.30447 21.52245,0.30467 l 0.34179,3.5e-4 5.23004,5.378 5.23003,5.37801 h 0.87668 c 1.63913,0 29.26378,0.40959 29.28844,0.43425 0.0135,0.0135 -0.22589,0.0246 -0.53196,0.0248 -0.30607,1.4e-4 -6.89922,0.0918 -14.65144,0.20366 -7.75223,0.11188 -14.38667,0.20352 -14.74321,0.20366 l -0.64825,2.4e-4 -5.28428,-5.13586 -5.28428,-5.13587 -1.40806,0.0166 c -0.77443,0.009 -10.10466,0.13995 -20.73383,0.29068 l -19.32578,0.27407 -0.91593,0.93274 c -0.50376,0.51301 -2.92998,3.00876 -5.3916,5.54611 -2.46162,2.53734 -4.73109,4.87163 -5.04327,5.18729 l -0.56761,0.57394 -32.0124,0.45496 c -17.60682,0.25022 -32.585885,0.46221 -33.286809,0.47107 l -1.274408,0.0161 -0.02549,-1.08952 -0.02549,-1.08952 -2.210242,3.8295 -2.210241,3.8295 -4.569609,-10e-4 -4.56961,-0.001 z m 360.619034,0.19553 c -1.18467,-2.05495 -2.18754,-3.78067 -2.22859,-3.83494 -0.0663,-0.0876 -0.0748,0.025 -0.0763,1.00702 l -0.002,1.1057 -1.26166,-0.0262 c -0.69392,-0.0144 -15.67844,-0.23072 -33.29895,-0.48066 l -32.03729,-0.45444 -0.18597,-0.19174 c -4.51959,-4.65989 -11.06161,-11.39967 -11.33383,-11.67645 l -0.36575,-0.37187 -19.34281,-0.27402 c -10.63854,-0.15071 -19.96668,-0.28664 -20.7292,-0.30207 l -1.38639,-0.0281 -5.29151,5.14542 -5.29151,5.14541 -0.68818,10e-4 c -0.37849,7.2e-4 -7.00797,-0.0901 -14.73215,-0.20186 -7.72419,-0.11174 -14.2944,-0.20332 -14.60047,-0.20351 -0.30607,-1.9e-4 -0.54527,-0.0116 -0.53156,-0.0253 0.0242,-0.0242 27.54572,-0.43281 29.27796,-0.43465 l 0.86659,-9.1e-4 5.22182,-5.37715 5.22182,-5.37715 h 0.28543 c 0.62225,0 39.53906,-0.55648 41.08915,-0.58754 l 1.65752,-0.0332 6.06156,5.88967 6.06156,5.88967 1.20178,-0.0263 c 0.66098,-0.0144 14.8851,-0.21839 31.60915,-0.45324 16.72406,-0.23485 30.88294,-0.43662 31.46418,-0.44838 l 1.0568,-0.0214 0.0137,1.11543 0.0137,1.11544 2.12731,-3.68403 c 1.17003,-2.02622 2.17328,-3.75859 2.22947,-3.84971 l 0.10215,-0.16567 h 0.5082 0.50821 l 0.0244,-0.16567 c 0.0134,-0.0911 0.22302,-7.70125 0.46581,-16.9114 0.41452,-15.72449 0.44701,-16.75038 0.53277,-16.82218 0.0502,-0.0421 1.53711,-1.44816 3.30417,-3.12468 l 3.21282,-3.04821 0.0293,-0.46916 c 0.0161,-0.25803 0.14368,-4.90791 0.28343,-10.33307 0.13974,-5.42515 0.26585,-10.09629 0.28023,-10.3803 l 0.0262,-0.51638 -2.47737,-2.61866 c -1.36255,-1.44027 -2.57691,-2.72189 -2.69857,-2.84806 l -0.2212,-0.22939 0.21886,-8.11826 c 0.12037,-4.46504 0.2287,-8.1281 0.24074,-8.14014 0.012,-0.012 0.10873,3.29709 0.21486,7.35361 0.10613,4.05652 0.20652,7.64267 0.22308,7.96922 l 0.0301,0.59371 2.8983,2.74336 2.8983,2.74336 -1.3e-4,0.20578 c -7e-5,0.11318 0.13843,5.34906 0.30777,11.6353 l 0.3079,11.42953 -3.0597,3.22616 -3.0597,3.22617 -0.002,0.35684 c -0.004,0.59318 0.81574,31.36907 0.84714,31.82197 l 0.0292,0.42055 h 1.61909 1.61908 l 2.28135,3.95101 c 1.38318,2.39551 2.26967,3.98145 2.25168,4.02832 -0.0163,0.0425 -1.04213,1.83163 -2.27958,3.9758 l -2.24992,3.89851 -4.56931,-10e-4 -4.56931,-0.001 z M 85.139965,148.54527 c -0.02089,-0.29439 -0.119182,-3.75823 -0.218429,-7.69743 -0.09925,-3.93919 -0.193029,-7.30634 -0.208404,-7.48254 l -0.02796,-0.32037 -2.901404,-2.75411 -2.901403,-2.75411 -0.0011,-0.49386 c -5.91e-4,-0.27163 -0.136396,-5.50329 -0.301789,-11.62593 l -0.300714,-11.13206 3.067255,-3.23721 3.067254,-3.237218 -0.01544,-0.64325 C 84.389366,96.813394 84.211586,90.118594 84.002792,82.289849 83.793999,74.461103 83.623167,67.894715 83.623167,67.697876 v -0.357889 l -1.210687,-2.5e-5 -1.210688,-2.6e-5 -2.268446,-3.931972 c -1.247645,-2.162584 -2.26597,-3.95905 -2.262944,-3.992146 0.003,-0.0331 1.021054,-1.819417 2.262285,-3.969603 l 2.256784,-3.909427 4.592557,0.01301 4.592557,0.01301 2.193454,3.800022 2.193455,3.800021 0.01374,-1.085532 0.01374,-1.085532 0.69993,9.8e-5 c 0.384962,5.5e-5 15.117306,0.206464 32.738546,0.458689 17.62124,0.252224 32.29095,0.459044 32.59936,0.459599 l 0.56073,10e-4 5.93832,6.114119 5.93832,6.114119 0.25531,0.02451 c 0.14041,0.01348 8.7658,0.141661 19.16752,0.284845 10.40171,0.143184 19.62333,0.273306 20.49248,0.289159 l 1.58026,0.02882 5.30154,-5.159598 5.30154,-5.159599 1.35087,0.02873 c 0.74298,0.0158 7.5445,0.11561 15.11448,0.221793 7.56998,0.106184 13.64891,0.209067 13.50872,0.22863 -0.14018,0.01956 -6.40262,0.117205 -13.91653,0.216982 -7.51391,0.09978 -14.12472,0.195554 -14.69068,0.212837 l -1.02903,0.03142 -4.75678,4.891313 c -2.61624,2.690222 -4.95178,5.098308 -5.19009,5.351304 l -0.4333,0.459991 -20.8748,0.29987 c -11.48114,0.164928 -21.17476,0.300361 -21.54138,0.300962 l -0.66657,0.0011 -6.03382,-5.862277 -6.03382,-5.862277 -0.69117,4.7e-5 c -0.88918,6.1e-5 -60.690786,0.849233 -62.970485,0.89417 l -1.719442,0.03389 -0.01375,-1.101409 -0.01375,-1.10141 -2.199213,3.810631 -2.199212,3.81063 -1.020789,0.01379 -1.020788,0.01379 -0.02829,0.368537 c -0.01556,0.202695 -0.201203,6.963598 -0.412543,15.024229 -0.21134,8.060631 -0.398898,15.030807 -0.416797,15.489281 l -0.03254,0.833589 -3.300439,3.129669 -3.30044,3.12966 -0.03297,0.8795 c -0.07565,2.01782 -0.541422,20.0617 -0.527937,20.4521 l 0.01469,0.42517 2.66692,2.81136 2.666919,2.81136 -0.207522,7.78418 c -0.114138,4.28131 -0.213163,7.9677 -0.220056,8.192 l -0.01253,0.40781 z m 360.808265,0.051 c -0.0184,-0.21028 -0.11427,-3.55943 -0.21295,-7.44255 -0.0987,-3.88312 -0.19333,-7.3699 -0.21033,-7.7484 l -0.0309,-0.68818 2.70247,-2.85362 2.70247,-2.85362 -0.0258,-0.74021 c -0.0142,-0.40712 -0.14705,-5.28907 -0.29528,-10.84879 -0.23383,-8.77034 -0.27977,-10.11669 -0.34705,-10.16978 -0.0427,-0.0337 -1.53654,-1.44632 -3.31975,-3.13925 l -3.2422,-3.078059 V 98.79368 c 0,-0.132061 -0.18351,-7.060329 -0.40781,-15.396151 -0.2243,-8.335822 -0.40781,-15.358878 -0.40781,-15.606791 v -0.450751 h -0.57423 -0.57423 l -2.16575,-3.753531 c -1.19116,-2.064442 -2.19369,-3.790628 -2.22784,-3.835968 -0.0494,-0.06564 -0.0624,0.144566 -0.0637,1.031988 l -0.002,1.114424 -1.66947,-0.03377 c -3.51014,-0.071 -62.46539,-0.896894 -63.07737,-0.883644 l -0.64412,0.01395 -6.00508,5.836789 -6.00508,5.836789 -0.28358,0.01578 c -0.33367,0.01856 -40.02345,-0.535317 -41.69108,-0.581807 l -1.1362,-0.03167 -5.13771,-5.283054 c -2.82575,-2.90568 -5.17567,-5.314153 -5.22207,-5.352163 -0.0692,-0.05671 -2.7554,-0.107286 -14.96768,-0.281839 -8.18584,-0.117003 -14.89463,-0.224028 -14.90844,-0.237834 -0.0138,-0.01381 6.17283,-0.111676 13.74808,-0.217489 7.57526,-0.105813 14.37228,-0.206393 15.1045,-0.223511 l 1.3313,-0.03112 4.58195,4.450571 c 2.52007,2.447814 4.90431,4.76919 5.29832,5.158613 l 0.71637,0.708042 20.54075,-0.285972 c 11.29742,-0.157284 20.6368,-0.297035 20.75418,-0.310557 0.2076,-0.02392 0.37552,-0.191337 6.15737,-6.139104 l 5.94394,-6.114519 0.57151,-9.9e-5 c 0.31433,-5.4e-5 14.97741,-0.206491 32.58464,-0.458749 17.60722,-0.252258 32.32809,-0.458668 32.71306,-0.458688 l 0.69993,-3.8e-5 0.0137,1.103669 0.0137,1.103669 2.21055,-3.831172 2.21055,-3.831173 4.59277,0.01301 4.59277,0.01301 2.25512,3.899689 c 1.24032,2.144829 2.25629,3.924686 2.25772,3.955237 10e-4,0.03055 -1.01617,1.819821 -2.26135,3.976154 l -2.26395,3.920604 -1.65905,0.01344 -1.65904,0.01344 -0.0241,0.164979 c -0.0133,0.09074 -0.20276,6.945428 -0.42111,15.232643 l -0.39701,15.067663 2.74911,2.901491 c 1.51201,1.59582 2.89422,3.05331 3.07159,3.23887 l 0.32247,0.33738 -0.3075,11.48913 c -0.16912,6.31902 -0.31334,11.55937 -0.32049,11.64523 -0.0112,0.13409 -0.41999,0.54198 -2.90064,2.89392 l -2.88766,2.73783 -0.0319,0.72539 c -0.0175,0.39897 -0.11888,3.98278 -0.22519,7.96403 -0.11074,4.14779 -0.20759,7.07539 -0.2268,6.85632 z"
       id="path1" /></g></svg>
